<svg width="20" height="20" viewBox="0 0 20 20" fill="none" xmlns="http://www.w3.org/2000/svg">
<g clip-path="url(#clip0_4265_1807)">
<path d="M0.625 4.625C0.625 2.41586 2.41586 0.625 4.625 0.625H15.375C17.5841 0.625 19.375 2.41586 19.375 4.625V15.375C19.375 17.5841 17.5841 19.375 15.375 19.375H4.625C2.41586 19.375 0.625 17.5841 0.625 15.375V4.625Z" stroke="white" stroke-width="1.5" stroke-linecap="round" stroke-linejoin="round"/>
<path d="M4.375 14.3752L7.26 10.5285C7.36743 10.3852 7.50441 10.2666 7.66167 10.1808C7.81893 10.095 7.99278 10.0441 8.17146 10.0313C8.35013 10.0186 8.52946 10.0444 8.69728 10.1071C8.86511 10.1697 9.01751 10.2677 9.14417 10.3943L10 11.2502L12.75 7.5835C12.8664 7.42825 13.0174 7.30225 13.191 7.21546C13.3646 7.12868 13.5559 7.0835 13.75 7.0835C13.9441 7.0835 14.1354 7.12868 14.309 7.21546C14.4826 7.30225 14.6336 7.42825 14.75 7.5835L16.975 10.5502" stroke="white" stroke-width="1.5" stroke-linecap="round" stroke-linejoin="round"/>
<path d="M3.75 5.3125C3.75 5.7269 3.91462 6.12433 4.20765 6.41735C4.50067 6.71038 4.8981 6.875 5.3125 6.875C5.7269 6.875 6.12433 6.71038 6.41735 6.41735C6.71038 6.12433 6.875 5.7269 6.875 5.3125C6.875 4.8981 6.71038 4.50067 6.41735 4.20765C6.12433 3.91462 5.7269 3.75 5.3125 3.75C4.8981 3.75 4.50067 3.91462 4.20765 4.20765C3.91462 4.50067 3.75 4.8981 3.75 5.3125Z" stroke="white" stroke-width="1.5" stroke-linecap="round" stroke-linejoin="round"/>
<path d="M0.625 14.375H19.375" stroke="white" stroke-width="1.5" stroke-linecap="round" stroke-linejoin="round"/>
</g>
<defs>
<clipPath id="clip0_4265_1807">
<rect width="20" height="20" fill="white"/>
</clipPath>
</defs>
</svg>
