<svg width="20" height="20" viewBox="0 0 20 20" fill="none" xmlns="http://www.w3.org/2000/svg">
<g clip-path="url(#clip0_4265_1594)">
<path d="M11.875 13.75H11.25C10.9185 13.75 10.6005 13.6183 10.3661 13.3839C10.1317 13.1495 10 12.8315 10 12.5V9.375C10 9.20924 9.93415 9.05027 9.81694 8.93306C9.69973 8.81585 9.54076 8.75 9.375 8.75H8.75" stroke="white" stroke-width="1.5" stroke-linecap="round" stroke-linejoin="round"/>
<path d="M9.6875 5.625C9.62569 5.625 9.56527 5.64333 9.51388 5.67767C9.46249 5.712 9.42244 5.76081 9.39879 5.81791C9.37514 5.87501 9.36895 5.93785 9.381 5.99847C9.39306 6.05908 9.42282 6.11477 9.46653 6.15847C9.51023 6.20217 9.56591 6.23194 9.62653 6.244C9.68715 6.25605 9.74999 6.24986 9.80709 6.22621C9.86419 6.20256 9.913 6.16251 9.94733 6.11112C9.98167 6.05973 10 5.99931 10 5.9375C10 5.85462 9.96708 5.77513 9.90847 5.71653C9.84987 5.65792 9.77038 5.625 9.6875 5.625Z" stroke="white" stroke-width="1.5" stroke-linecap="round" stroke-linejoin="round"/>
<path d="M0.625 10C0.625 12.4864 1.61272 14.871 3.37087 16.6291C5.12903 18.3873 7.5136 19.375 10 19.375C12.4864 19.375 14.871 18.3873 16.6291 16.6291C18.3873 14.871 19.375 12.4864 19.375 10C19.375 7.5136 18.3873 5.12903 16.6291 3.37087C14.871 1.61272 12.4864 0.625 10 0.625C7.5136 0.625 5.12903 1.61272 3.37087 3.37087C1.61272 5.12903 0.625 7.5136 0.625 10V10Z" stroke="white" stroke-width="1.5" stroke-linecap="round" stroke-linejoin="round"/>
</g>
<defs>
<clipPath id="clip0_4265_1594">
<rect width="20" height="20" fill="white"/>
</clipPath>
</defs>
</svg>
