<svg width="24" height="18" viewBox="0 0 24 18" fill="none" xmlns="http://www.w3.org/2000/svg">
<path d="M19.1818 9C19.1814 8.14044 19.4854 7.30851 20.04 6.65174C20.5945 5.99497 21.3637 5.5558 22.2112 5.41212C22.3807 5.3837 22.5347 5.29612 22.6458 5.16494C22.757 5.03375 22.818 4.86744 22.8182 4.69552V2.45455C22.8182 2.06878 22.6649 1.69881 22.3922 1.42603C22.1194 1.15325 21.7494 1 21.3636 1H2.45455C2.06878 1 1.69881 1.15325 1.42603 1.42603C1.15325 1.69881 1 2.06878 1 2.45455V4.69745C0.999961 4.86943 1.06095 5.03584 1.17211 5.16707C1.28327 5.2983 1.43739 5.38582 1.60703 5.41406C2.45637 5.55557 3.22798 5.99379 3.78456 6.65078C4.34114 7.30776 4.6466 8.14089 4.6466 9.00194C4.6466 9.86299 4.34114 10.6961 3.78456 11.3531C3.22798 12.0101 2.45637 12.4483 1.60703 12.5898C1.43747 12.6182 1.28346 12.7058 1.17234 12.837C1.06121 12.9682 1.00016 13.1345 1 13.3064V15.5455C1 15.9312 1.15325 16.3012 1.42603 16.574C1.69881 16.8468 2.06878 17 2.45455 17H21.3636C21.7494 17 22.1194 16.8468 22.3922 16.574C22.6649 16.3012 22.8182 15.9312 22.8182 15.5455V13.3025C22.8182 13.1306 22.7572 12.9642 22.6461 12.8329C22.5349 12.7017 22.3808 12.6142 22.2112 12.5859C21.364 12.4423 20.5951 12.0034 20.0406 11.3471C19.4861 10.6907 19.1819 9.85923 19.1818 9V9Z" stroke="white" stroke-width="1.5" stroke-linecap="round" stroke-linejoin="round"/>
<path d="M15.5459 14.0908V12.6362" stroke="white" stroke-width="1.5" stroke-linecap="round" stroke-linejoin="round"/>
<path d="M15.5459 9.72749V8.27295" stroke="white" stroke-width="1.5" stroke-linecap="round" stroke-linejoin="round"/>
<path d="M15.5459 5.36373V3.90918" stroke="white" stroke-width="1.5" stroke-linecap="round" stroke-linejoin="round"/>
<path d="M8.27246 14.0908V12.6362" stroke="white" stroke-width="1.5" stroke-linecap="round" stroke-linejoin="round"/>
<path d="M8.27246 9.72749V8.27295" stroke="white" stroke-width="1.5" stroke-linecap="round" stroke-linejoin="round"/>
<path d="M8.27246 5.36373V3.90918" stroke="white" stroke-width="1.5" stroke-linecap="round" stroke-linejoin="round"/>
</svg>
